<mxfile host="app.diagrams.net" modified="2021-02-08T08:43:40.454Z" agent="5.0 (Windows NT 10.0; Win64; x64) AppleWebKit/537.36 (KHTML, like Gecko) Chrome/88.0.4324.146 Safari/537.36" etag="O9MUi7chaX0Q12ujqdDF" version="14.2.7" type="github">
  <diagram id="ANJcj3EIP25L1UMI5jWF" name="Page-1">
    <mxGraphModel dx="782" dy="1157" grid="1" gridSize="10" guides="1" tooltips="1" connect="1" arrows="1" fold="1" page="1" pageScale="1" pageWidth="827" pageHeight="1169" math="0" shadow="0">
      <root>
        <mxCell id="0" />
        <mxCell id="1" parent="0" />
        <mxCell id="j1fywYw72kgHkhTbVtm5-1" value="Palestra" style="swimlane;fontStyle=1;align=center;verticalAlign=top;childLayout=stackLayout;horizontal=1;startSize=26;horizontalStack=0;resizeParent=1;resizeParentMax=0;resizeLast=0;collapsible=1;marginBottom=0;" vertex="1" parent="1">
          <mxGeometry x="360" y="210" width="290" height="100" as="geometry" />
        </mxCell>
        <mxCell id="j1fywYw72kgHkhTbVtm5-2" value="+ field: type" style="text;strokeColor=none;fillColor=none;align=left;verticalAlign=top;spacingLeft=4;spacingRight=4;overflow=hidden;rotatable=0;points=[[0,0.5],[1,0.5]];portConstraint=eastwest;" vertex="1" parent="j1fywYw72kgHkhTbVtm5-1">
          <mxGeometry y="26" width="290" height="26" as="geometry" />
        </mxCell>
        <mxCell id="j1fywYw72kgHkhTbVtm5-3" value="" style="line;strokeWidth=1;fillColor=none;align=left;verticalAlign=middle;spacingTop=-1;spacingLeft=3;spacingRight=3;rotatable=0;labelPosition=right;points=[];portConstraint=eastwest;" vertex="1" parent="j1fywYw72kgHkhTbVtm5-1">
          <mxGeometry y="52" width="290" height="8" as="geometry" />
        </mxCell>
        <mxCell id="j1fywYw72kgHkhTbVtm5-4" value="+ CreaAbbonamento(Cliente cliente) : Abbonamento&#xa;+ CalcolaBilancio(int nMesi) : float" style="text;strokeColor=none;fillColor=none;align=left;verticalAlign=top;spacingLeft=4;spacingRight=4;overflow=hidden;rotatable=0;points=[[0,0.5],[1,0.5]];portConstraint=eastwest;" vertex="1" parent="j1fywYw72kgHkhTbVtm5-1">
          <mxGeometry y="60" width="290" height="40" as="geometry" />
        </mxCell>
        <mxCell id="j1fywYw72kgHkhTbVtm5-5" value="Abbonamento&#xa;" style="swimlane;fontStyle=1;align=center;verticalAlign=top;childLayout=stackLayout;horizontal=1;startSize=26;horizontalStack=0;resizeParent=1;resizeParentMax=0;resizeLast=0;collapsible=1;marginBottom=0;" vertex="1" parent="1">
          <mxGeometry x="80" y="441" width="160" height="86" as="geometry" />
        </mxCell>
        <mxCell id="j1fywYw72kgHkhTbVtm5-6" value="+ field : type" style="text;strokeColor=none;fillColor=none;align=left;verticalAlign=top;spacingLeft=4;spacingRight=4;overflow=hidden;rotatable=0;points=[[0,0.5],[1,0.5]];portConstraint=eastwest;" vertex="1" parent="j1fywYw72kgHkhTbVtm5-5">
          <mxGeometry y="26" width="160" height="26" as="geometry" />
        </mxCell>
        <mxCell id="j1fywYw72kgHkhTbVtm5-7" value="" style="line;strokeWidth=1;fillColor=none;align=left;verticalAlign=middle;spacingTop=-1;spacingLeft=3;spacingRight=3;rotatable=0;labelPosition=right;points=[];portConstraint=eastwest;" vertex="1" parent="j1fywYw72kgHkhTbVtm5-5">
          <mxGeometry y="52" width="160" height="8" as="geometry" />
        </mxCell>
        <mxCell id="j1fywYw72kgHkhTbVtm5-8" value="+ method(type): type" style="text;strokeColor=none;fillColor=none;align=left;verticalAlign=top;spacingLeft=4;spacingRight=4;overflow=hidden;rotatable=0;points=[[0,0.5],[1,0.5]];portConstraint=eastwest;" vertex="1" parent="j1fywYw72kgHkhTbVtm5-5">
          <mxGeometry y="60" width="160" height="26" as="geometry" />
        </mxCell>
        <mxCell id="j1fywYw72kgHkhTbVtm5-9" value="Cliente" style="swimlane;fontStyle=1;align=center;verticalAlign=top;childLayout=stackLayout;horizontal=1;startSize=26;horizontalStack=0;resizeParent=1;resizeParentMax=0;resizeLast=0;collapsible=1;marginBottom=0;" vertex="1" parent="1">
          <mxGeometry x="425" y="400" width="160" height="168" as="geometry" />
        </mxCell>
        <mxCell id="j1fywYw72kgHkhTbVtm5-10" value="+Nome : string&#xa;+ Cognome : string&#xa;+ Eta : int&#xa;+ Indizitto : string&#xa;+ Professione : string&#xa;+ UsaStaffMedico : bool" style="text;strokeColor=none;fillColor=none;align=left;verticalAlign=top;spacingLeft=4;spacingRight=4;overflow=hidden;rotatable=0;points=[[0,0.5],[1,0.5]];portConstraint=eastwest;" vertex="1" parent="j1fywYw72kgHkhTbVtm5-9">
          <mxGeometry y="26" width="160" height="94" as="geometry" />
        </mxCell>
        <mxCell id="j1fywYw72kgHkhTbVtm5-11" value="" style="line;strokeWidth=1;fillColor=none;align=left;verticalAlign=middle;spacingTop=-1;spacingLeft=3;spacingRight=3;rotatable=0;labelPosition=right;points=[];portConstraint=eastwest;" vertex="1" parent="j1fywYw72kgHkhTbVtm5-9">
          <mxGeometry y="120" width="160" height="8" as="geometry" />
        </mxCell>
        <mxCell id="j1fywYw72kgHkhTbVtm5-12" value="+ ControlloMedico() : void&#xa;+ CalcolaCosto() : void" style="text;strokeColor=none;fillColor=none;align=left;verticalAlign=top;spacingLeft=4;spacingRight=4;overflow=hidden;rotatable=0;points=[[0,0.5],[1,0.5]];portConstraint=eastwest;" vertex="1" parent="j1fywYw72kgHkhTbVtm5-9">
          <mxGeometry y="128" width="160" height="40" as="geometry" />
        </mxCell>
        <mxCell id="j1fywYw72kgHkhTbVtm5-13" value="Scheda" style="swimlane;fontStyle=1;align=center;verticalAlign=top;childLayout=stackLayout;horizontal=1;startSize=26;horizontalStack=0;resizeParent=1;resizeParentMax=0;resizeLast=0;collapsible=1;marginBottom=0;" vertex="1" parent="1">
          <mxGeometry x="415" y="680" width="180" height="124" as="geometry" />
        </mxCell>
        <mxCell id="j1fywYw72kgHkhTbVtm5-14" value="+ Esercizi : List&lt;string&gt;&#xa;+ DataDiScadenza : DateTime&#xa;+ Settimanale : bool&#xa;+ Aggiunte : enum" style="text;strokeColor=none;fillColor=none;align=left;verticalAlign=top;spacingLeft=4;spacingRight=4;overflow=hidden;rotatable=0;points=[[0,0.5],[1,0.5]];portConstraint=eastwest;" vertex="1" parent="j1fywYw72kgHkhTbVtm5-13">
          <mxGeometry y="26" width="180" height="64" as="geometry" />
        </mxCell>
        <mxCell id="j1fywYw72kgHkhTbVtm5-15" value="" style="line;strokeWidth=1;fillColor=none;align=left;verticalAlign=middle;spacingTop=-1;spacingLeft=3;spacingRight=3;rotatable=0;labelPosition=right;points=[];portConstraint=eastwest;" vertex="1" parent="j1fywYw72kgHkhTbVtm5-13">
          <mxGeometry y="90" width="180" height="8" as="geometry" />
        </mxCell>
        <mxCell id="j1fywYw72kgHkhTbVtm5-16" value="+ method(type): type" style="text;strokeColor=none;fillColor=none;align=left;verticalAlign=top;spacingLeft=4;spacingRight=4;overflow=hidden;rotatable=0;points=[[0,0.5],[1,0.5]];portConstraint=eastwest;" vertex="1" parent="j1fywYw72kgHkhTbVtm5-13">
          <mxGeometry y="98" width="180" height="26" as="geometry" />
        </mxCell>
        <mxCell id="j1fywYw72kgHkhTbVtm5-17" value="SchedaMedica" style="swimlane;fontStyle=1;align=center;verticalAlign=top;childLayout=stackLayout;horizontal=1;startSize=26;horizontalStack=0;resizeParent=1;resizeParentMax=0;resizeLast=0;collapsible=1;marginBottom=0;" vertex="1" parent="1">
          <mxGeometry x="667" y="417" width="160" height="134" as="geometry" />
        </mxCell>
        <mxCell id="j1fywYw72kgHkhTbVtm5-18" value="+ peso : float&#xa;+ massaGrassa : int&#xa;+ elettrocardiogramma : ?&#xa;+ battitiRiposo : int&#xa;+ battitiSforza : int&#xa;" style="text;strokeColor=none;fillColor=none;align=left;verticalAlign=top;spacingLeft=4;spacingRight=4;overflow=hidden;rotatable=0;points=[[0,0.5],[1,0.5]];portConstraint=eastwest;" vertex="1" parent="j1fywYw72kgHkhTbVtm5-17">
          <mxGeometry y="26" width="160" height="74" as="geometry" />
        </mxCell>
        <mxCell id="j1fywYw72kgHkhTbVtm5-19" value="" style="line;strokeWidth=1;fillColor=none;align=left;verticalAlign=middle;spacingTop=-1;spacingLeft=3;spacingRight=3;rotatable=0;labelPosition=right;points=[];portConstraint=eastwest;" vertex="1" parent="j1fywYw72kgHkhTbVtm5-17">
          <mxGeometry y="100" width="160" height="8" as="geometry" />
        </mxCell>
        <mxCell id="j1fywYw72kgHkhTbVtm5-20" value="+ method(type): type" style="text;strokeColor=none;fillColor=none;align=left;verticalAlign=top;spacingLeft=4;spacingRight=4;overflow=hidden;rotatable=0;points=[[0,0.5],[1,0.5]];portConstraint=eastwest;" vertex="1" parent="j1fywYw72kgHkhTbVtm5-17">
          <mxGeometry y="108" width="160" height="26" as="geometry" />
        </mxCell>
        <mxCell id="j1fywYw72kgHkhTbVtm5-21" value="Servizio" style="swimlane;fontStyle=1;align=center;verticalAlign=top;childLayout=stackLayout;horizontal=1;startSize=26;horizontalStack=0;resizeParent=1;resizeParentMax=0;resizeLast=0;collapsible=1;marginBottom=0;" vertex="1" parent="1">
          <mxGeometry x="80" y="230" width="160" height="94" as="geometry" />
        </mxCell>
        <mxCell id="j1fywYw72kgHkhTbVtm5-22" value="+ String : titolo&#xa;+ Prezzo : float" style="text;strokeColor=none;fillColor=none;align=left;verticalAlign=top;spacingLeft=4;spacingRight=4;overflow=hidden;rotatable=0;points=[[0,0.5],[1,0.5]];portConstraint=eastwest;" vertex="1" parent="j1fywYw72kgHkhTbVtm5-21">
          <mxGeometry y="26" width="160" height="34" as="geometry" />
        </mxCell>
        <mxCell id="j1fywYw72kgHkhTbVtm5-23" value="" style="line;strokeWidth=1;fillColor=none;align=left;verticalAlign=middle;spacingTop=-1;spacingLeft=3;spacingRight=3;rotatable=0;labelPosition=right;points=[];portConstraint=eastwest;" vertex="1" parent="j1fywYw72kgHkhTbVtm5-21">
          <mxGeometry y="60" width="160" height="8" as="geometry" />
        </mxCell>
        <mxCell id="j1fywYw72kgHkhTbVtm5-24" value="+ method(type): type" style="text;strokeColor=none;fillColor=none;align=left;verticalAlign=top;spacingLeft=4;spacingRight=4;overflow=hidden;rotatable=0;points=[[0,0.5],[1,0.5]];portConstraint=eastwest;" vertex="1" parent="j1fywYw72kgHkhTbVtm5-21">
          <mxGeometry y="68" width="160" height="26" as="geometry" />
        </mxCell>
        <mxCell id="j1fywYw72kgHkhTbVtm5-26" value="" style="endArrow=diamondThin;endFill=1;endSize=24;html=1;" edge="1" parent="1" source="j1fywYw72kgHkhTbVtm5-5" target="j1fywYw72kgHkhTbVtm5-9">
          <mxGeometry width="160" relative="1" as="geometry">
            <mxPoint x="110" y="670" as="sourcePoint" />
            <mxPoint x="270" y="670" as="targetPoint" />
          </mxGeometry>
        </mxCell>
        <mxCell id="j1fywYw72kgHkhTbVtm5-27" value="" style="endArrow=diamondThin;endFill=0;endSize=24;html=1;" edge="1" parent="1" source="j1fywYw72kgHkhTbVtm5-17" target="j1fywYw72kgHkhTbVtm5-9">
          <mxGeometry width="160" relative="1" as="geometry">
            <mxPoint x="550" y="600" as="sourcePoint" />
            <mxPoint x="710" y="600" as="targetPoint" />
          </mxGeometry>
        </mxCell>
        <mxCell id="j1fywYw72kgHkhTbVtm5-29" value="" style="endArrow=diamondThin;endFill=0;endSize=24;html=1;" edge="1" parent="1" source="j1fywYw72kgHkhTbVtm5-13" target="j1fywYw72kgHkhTbVtm5-9">
          <mxGeometry width="160" relative="1" as="geometry">
            <mxPoint x="140" y="730" as="sourcePoint" />
            <mxPoint x="300" y="730" as="targetPoint" />
          </mxGeometry>
        </mxCell>
        <mxCell id="j1fywYw72kgHkhTbVtm5-30" value="" style="endArrow=open;endFill=1;endSize=12;html=1;" edge="1" parent="1" source="j1fywYw72kgHkhTbVtm5-21" target="j1fywYw72kgHkhTbVtm5-9">
          <mxGeometry width="160" relative="1" as="geometry">
            <mxPoint x="120" y="690" as="sourcePoint" />
            <mxPoint x="280" y="690" as="targetPoint" />
          </mxGeometry>
        </mxCell>
        <mxCell id="j1fywYw72kgHkhTbVtm5-31" value="" style="endArrow=diamondThin;endFill=0;endSize=24;html=1;" edge="1" parent="1" source="j1fywYw72kgHkhTbVtm5-21" target="j1fywYw72kgHkhTbVtm5-5">
          <mxGeometry width="160" relative="1" as="geometry">
            <mxPoint x="80" y="670" as="sourcePoint" />
            <mxPoint x="240" y="670" as="targetPoint" />
          </mxGeometry>
        </mxCell>
        <mxCell id="j1fywYw72kgHkhTbVtm5-32" value="" style="endArrow=diamondThin;endFill=0;endSize=24;html=1;" edge="1" parent="1" source="j1fywYw72kgHkhTbVtm5-9" target="j1fywYw72kgHkhTbVtm5-1">
          <mxGeometry width="160" relative="1" as="geometry">
            <mxPoint x="410" y="330" as="sourcePoint" />
            <mxPoint x="570" y="330" as="targetPoint" />
          </mxGeometry>
        </mxCell>
      </root>
    </mxGraphModel>
  </diagram>
</mxfile>
